<?xml version="1.0" encoding="utf-8"?>
<!-- Generator: Adobe Illustrator 16.0.0, SVG Export Plug-In . SVG Version: 6.00 Build 0)  -->
<svg version="1.2" baseProfile="tiny" id="Layer_1" xmlns="http://www.w3.org/2000/svg" xmlns:xlink="http://www.w3.org/1999/xlink"
	 x="0px" y="0px"  viewBox="0 0 3000 3000" xml:space="preserve">
<g>
	<g>
		<path fill="#E42C27" d="M2.4,1746v-499.2h169.2c68.4,0,122.4,10.8,162,30c39.601,19.2,70.801,50.4,94.801,90
			c22.8,39.6,34.8,82.8,34.8,129.6c0,33.601-7.2,66-19.2,96c-13.2,30-31.2,57.601-55.2,80.4c-24,24-52.8,42-85.2,54
			c-19.2,7.2-36,12-51.6,14.4c-15.6,2.399-45.6,3.6-90,3.6H2.4V1746z M164.4,1310.399h-90v372h92.4c36,0,63.6-2.399,84-7.199
			c19.2-4.801,36-10.801,49.2-18c13.2-7.2,25.2-16.801,36-27.601c34.8-36,52.8-81.6,52.8-135.6s-18-97.2-54-132
			c-13.2-12-28.8-22.8-45.6-31.2c-18-8.4-33.6-13.2-49.2-15.6C223.2,1311.6,198,1310.399,164.4,1310.399z"/>
		<path fill="#E42C27" d="M663.6,1416c50.4,0,92.4,15.6,124.801,48c33.6,32.399,49.199,73.2,49.199,121.2s-16.8,86.399-50.399,117.6
			C753.6,1734,711.6,1749.6,660,1749.6c-49.2,0-91.2-15.6-123.6-48c-33.601-32.399-49.2-72-49.2-118.8c0-48,16.8-88.8,50.399-120
			C571.2,1432.8,613.2,1416,663.6,1416z M660,1474.8c-31.2,0-56.4,10.8-76.8,31.2c-20.4,20.399-30,46.8-30,78s10.8,57.6,31.2,76.8
			c20.399,19.2,46.8,30,79.199,30c32.4,0,58.801-10.8,78-30c20.4-20.4,30-45.6,30-76.8s-10.8-57.601-32.399-78
			C718.8,1485.6,692.4,1474.8,660,1474.8z"/>
		<path fill="#E42C27" d="M939.6,1417.2v42c28.801-32.4,62.4-48,99.601-48c20.399,0,39.6,4.8,57.6,15.6s31.2,25.2,40.8,44.4
			c9.601,18,14.4,48,14.4,87.6v188.4h-64.8V1560c0-33.601-4.8-57.601-15.601-72c-10.8-14.4-27.6-21.601-51.6-21.601
			c-31.2,0-57.6,15.601-78,46.801v235.199h-66V1417.2H939.6z"/>
		<path fill="#E42C27" d="M1484.4,1581.6c0,0-159.601,21.601-231.601,9.601c-14.399-2.4,14.4,56.399,34.8,73.199
			c20.4,18,45.601,26.4,76.801,25.2c43.199-1.2,81.6-16.8,117.6-44.399l2.4,63.6c-19.2,14.4-39.601,24-58.801,31.2
			c-19.199,7.2-42,10.8-68.399,10.8c-36,1.2-66-4.8-88.8-19.2c-22.801-14.399-42-33.6-56.4-58.8s-21.6-54-24-87.6
			c-2.4-50.4,10.8-91.2,37.2-123.601c27.6-32.399,63.6-49.2,108-51.6c44.399-1.2,79.2,12,106.8,42s42,69.6,44.4,121.2V1581.6z
			 M1267.2,1552.8c9.6-7.2,154.8-10.8,165.6-7.2c10.8,3.601-10.8-45.6-25.2-58.8c-14.399-13.2-33.6-20.4-56.399-19.2
			s-42,8.4-56.4,24C1279.2,1504.8,1257.6,1560,1267.2,1552.8z"/>
		<path fill="#E42C27" d="M2044.8,1508.399c0,50.4-9.6,92.4-27.6,122.4c-18,31.2-40.8,55.2-66,74.4c-36,27.6-85.2,42-148.8,42h-7.2
			h-260.4v-496.801h206.4c31.2,0,57.6,1.2,79.2,4.801c21.6,3.6,42,7.199,58.8,13.199c18,6,32.399,12,44.399,19.2s24,14.4,33.601,24
			c16.8,14.4,32.399,30,44.399,49.2c13.2,19.2,22.801,40.8,30,66C2041.2,1452,2044.8,1478.399,2044.8,1508.399z M1892.4,1501.2
			c0-40.801-7.2-72-22.801-94.801c-15.6-22.8-33.6-37.199-55.199-45.6c-21.601-7.2-43.2-10.8-66-10.8H1680c25.2,42,19.2,259.2,0,294
			h68.4c39.6,0,73.199-9.601,102-27.601C1878,1597.2,1892.4,1560,1892.4,1501.2z"/>
		<path fill="#E42C27" d="M2452.8,1574.399c0,0-177.6,37.2-254.399,24C2181.6,1594.8,2217.6,1638,2238,1650
			c20.4,13.2,43.2,18,67.2,16.8c43.2-2.4,91.2-16.8,141.6-44.4l3.601,79.2c-18,10.8-40.801,21.601-67.2,30
			c-26.4,9.601-60,15.601-102,18c-44.4,2.4-84-3.6-115.2-18c-32.4-14.399-57.6-36-74.4-63.6c-16.8-27.601-26.399-60-28.8-96
			c-2.399-36,3.601-68.4,18-97.2c14.4-28.8,36-52.8,67.2-69.6c30-18,68.4-27.601,112.8-30c30-1.2,58.8,3.6,86.4,14.399
			c28.8,10.8,51.6,31.2,70.8,58.8c19.2,27.601,30,64.801,33.6,110.4L2452.8,1574.399z M2354.4,1526.399
			c13.199,3.601-8.4-42-20.4-55.199c-12-13.2-30-19.2-51.6-18c-21.601,1.199-38.4,9.6-50.4,24c-12,14.399-31.2,62.399-16.8,56.399
			C2233.2,1527.6,2328,1520.399,2354.4,1526.399z"/>
		<path fill="#E42C27" d="M2857.2,1728c-19.2,7.2-36,13.2-51.601,18c-15.6,4.8-34.8,7.2-57.6,7.2c-21.6,0-36-3.601-44.4-10.801
			c-8.399-7.199-14.399-16.8-18-27.6c-14.399,10.8-30,20.4-45.6,27.6c-16.8,7.2-39.6,10.801-66,10.801s-48-4.801-63.6-14.4
			c-16.801-9.6-27.601-20.4-34.801-34.8c-7.199-14.4-9.6-28.8-9.6-43.2c0-21.6,6-40.8,16.8-55.2c10.8-14.399,26.4-26.399,45.601-36
			c19.199-9.6,44.399-19.2,75.6-28.8c18-6,31.2-9.6,40.8-13.2c9.601-3.6,15.601-4.8,20.4-7.2c4.8-1.199,9.6-3.6,14.399-6
			c0-18-3.6-31.199-10.8-40.8c-7.2-9.6-22.8-14.399-46.8-14.399c-28.8,0-54,6-78,18s-45.6,28.8-66,48V1425.6
			c15.6-10.8,33.6-20.399,51.6-28.8c18-7.2,38.4-13.2,58.801-16.8c20.399-3.601,40.8-4.8,61.199-4.8c52.801,0,92.4,10.8,118.801,30
			c26.399,20.399,39.6,48,39.6,84V1629.6c0,13.2,1.2,22.8,3.6,30c2.4,7.2,7.2,9.6,14.4,9.6c8.4,0,19.2-3.6,33.6-10.8L2857.2,1728
			L2857.2,1728z M2678.4,1658.399V1573.2c-30,12-52.801,22.8-66,33.6c-14.4,9.6-21.601,22.8-21.601,40.8
			c0,12,3.601,21.601,10.8,27.601c7.2,6,14.4,9.6,24,9.6c8.4,0,18-2.4,26.4-7.2C2660.4,1670.399,2670,1665.6,2678.4,1658.399z"/>
		<path fill="#E42C27" d="M2997.6,1747.2H2868v-496.801h128.4V1747.2H2997.6z"/>
	</g>
</g>
</svg>
